{
	"asset":{
		"generator":"Khronos glTF Blender I/O v3.6.27",
		"version":"2.0"
	},
	"scene":0,
	"scenes":[
		{
			"extras":{
				"rtm_props":{
					"material_category":3
				}
			},
			"name":"Scene",
			"nodes":[
				0,
				1,
				2,
				3,
				4,
				5,
				6,
				7,
				8
			]
		}
	],
	"nodes":[
		{
			"mesh":0,
			"name":"floor"
		},
		{
			"mesh":1,
			"name":"grumbs"
		},
		{
			"mesh":2,
			"name":"podium"
		},
		{
			"mesh":3,
			"name":"M"
		},
		{
			"mesh":4,
			"name":"B"
		},
		{
			"mesh":5,
			"name":"S"
		},
		{
			"mesh":6,
			"name":"U"
		},
		{
			"mesh":7,
			"name":"R"
		},
		{
			"mesh":8,
			"name":"G"
		}
	],
	"meshes":[
		{
			"name":"Plane",
			"primitives":[
				{
					"attributes":{
						"POSITION":0,
						"NORMAL":1,
						"TEXCOORD_0":2
					},
					"indices":3
				}
			]
		},
		{
			"name":"untitled",
			"primitives":[
				{
					"attributes":{
						"POSITION":4,
						"NORMAL":5
					},
					"indices":6
				}
			]
		},
		{
			"name":"Cylinder.004",
			"primitives":[
				{
					"attributes":{
						"POSITION":7,
						"NORMAL":8,
						"TEXCOORD_0":9
					},
					"indices":10
				}
			]
		},
		{
			"name":"Text.001",
			"primitives":[
				{
					"attributes":{
						"POSITION":11,
						"NORMAL":12,
						"TEXCOORD_0":13
					},
					"indices":14
				}
			]
		},
		{
			"name":"Text.002",
			"primitives":[
				{
					"attributes":{
						"POSITION":15,
						"NORMAL":16,
						"TEXCOORD_0":17
					},
					"indices":18
				}
			]
		},
		{
			"name":"Text.003",
			"primitives":[
				{
					"attributes":{
						"POSITION":19,
						"NORMAL":20,
						"TEXCOORD_0":21
					},
					"indices":22
				}
			]
		},
		{
			"name":"Text.004",
			"primitives":[
				{
					"attributes":{
						"POSITION":23,
						"NORMAL":24,
						"TEXCOORD_0":25
					},
					"indices":26
				}
			]
		},
		{
			"name":"Text.005",
			"primitives":[
				{
					"attributes":{
						"POSITION":27,
						"NORMAL":28,
						"TEXCOORD_0":29
					},
					"indices":30
				}
			]
		},
		{
			"name":"Text.006",
			"primitives":[
				{
					"attributes":{
						"POSITION":31,
						"NORMAL":32,
						"TEXCOORD_0":33
					},
					"indices":34
				}
			]
		}
	],
	"accessors":[
		{
			"bufferView":0,
			"componentType":5126,
			"count":6,
			"max":[
				2.9999985694885254,
				-5.730105385737261e-07,
				4
			],
			"min":[
				-3.000000238418579,
				-0.0016228610184043646,
				-2.0000569820404053
			],
			"type":"VEC3"
		},
		{
			"bufferView":1,
			"componentType":5126,
			"count":6,
			"type":"VEC3"
		},
		{
			"bufferView":2,
			"componentType":5126,
			"count":6,
			"type":"VEC2"
		},
		{
			"bufferView":3,
			"componentType":5123,
			"count":6,
			"type":"SCALAR"
		},
		{
			"bufferView":4,
			"componentType":5126,
			"count":13746,
			"max":[
				-0.010032802820205688,
				0.4315093755722046,
				1.7458518743515015
			],
			"min":[
				-0.2145209014415741,
				0.20041608810424805,
				1.4817836284637451
			],
			"type":"VEC3"
		},
		{
			"bufferView":5,
			"componentType":5126,
			"count":13746,
			"type":"VEC3"
		},
		{
			"bufferView":6,
			"componentType":5123,
			"count":64131,
			"type":"SCALAR"
		},
		{
			"bufferView":7,
			"componentType":5126,
			"count":192,
			"max":[
				0.22075584530830383,
				0.11604286730289459,
				1.9763405323028564
			],
			"min":[
				-0.46390169858932495,
				-0.008504193276166916,
				1.2879116535186768
			],
			"type":"VEC3"
		},
		{
			"bufferView":8,
			"componentType":5126,
			"count":192,
			"type":"VEC3"
		},
		{
			"bufferView":9,
			"componentType":5126,
			"count":192,
			"type":"VEC2"
		},
		{
			"bufferView":10,
			"componentType":5123,
			"count":528,
			"type":"SCALAR"
		},
		{
			"bufferView":11,
			"componentType":5126,
			"count":515,
			"max":[
				0.5532212853431702,
				0.9789246320724487,
				2.3610618114471436
			],
			"min":[
				-0.8044341206550598,
				-0.019163906574249268,
				-0.16078104078769684
			],
			"type":"VEC3"
		},
		{
			"bufferView":12,
			"componentType":5126,
			"count":515,
			"type":"VEC3"
		},
		{
			"bufferView":13,
			"componentType":5126,
			"count":515,
			"type":"VEC2"
		},
		{
			"bufferView":14,
			"componentType":5123,
			"count":1266,
			"type":"SCALAR"
		},
		{
			"bufferView":15,
			"componentType":5126,
			"count":1748,
			"max":[
				0.6936413049697876,
				0.6479818820953369,
				0.1609417200088501
			],
			"min":[
				0.15276581048965454,
				-0.013746500015258789,
				-0.1609416902065277
			],
			"type":"VEC3"
		},
		{
			"bufferView":16,
			"componentType":5126,
			"count":1748,
			"type":"VEC3"
		},
		{
			"bufferView":17,
			"componentType":5126,
			"count":1748,
			"type":"VEC2"
		},
		{
			"bufferView":18,
			"componentType":5123,
			"count":2172,
			"type":"SCALAR"
		},
		{
			"bufferView":19,
			"componentType":5126,
			"count":1988,
			"max":[
				1.0678606033325195,
				0.6049163937568665,
				0.16078101098537445
			],
			"min":[
				0.6694292426109314,
				-0.01037105917930603,
				-0.16078096628189087
			],
			"type":"VEC3"
		},
		{
			"bufferView":20,
			"componentType":5126,
			"count":1988,
			"type":"VEC3"
		},
		{
			"bufferView":21,
			"componentType":5126,
			"count":1988,
			"type":"VEC2"
		},
		{
			"bufferView":22,
			"componentType":5123,
			"count":2412,
			"type":"SCALAR"
		},
		{
			"bufferView":23,
			"componentType":5126,
			"count":995,
			"max":[
				-0.45371609926223755,
				0.6606172323226929,
				0.1951821893453598
			],
			"min":[
				-0.9923903942108154,
				-0.010324060916900635,
				-0.16627906262874603
			],
			"type":"VEC3"
		},
		{
			"bufferView":24,
			"componentType":5126,
			"count":995,
			"type":"VEC3"
		},
		{
			"bufferView":25,
			"componentType":5126,
			"count":995,
			"type":"VEC2"
		},
		{
			"bufferView":26,
			"componentType":5123,
			"count":1209,
			"type":"SCALAR"
		},
		{
			"bufferView":27,
			"componentType":5126,
			"count":1053,
			"max":[
				-0.8669450879096985,
				0.6485171914100647,
				0.4540054202079773
			],
			"min":[
				-1.317631483078003,
				-0.03670603036880493,
				-0.12537164986133575
			],
			"type":"VEC3"
		},
		{
			"bufferView":28,
			"componentType":5126,
			"count":1053,
			"type":"VEC3"
		},
		{
			"bufferView":29,
			"componentType":5126,
			"count":1053,
			"type":"VEC2"
		},
		{
			"bufferView":30,
			"componentType":5123,
			"count":1290,
			"type":"SCALAR"
		},
		{
			"bufferView":31,
			"componentType":5126,
			"count":1725,
			"max":[
				-1.3581684827804565,
				1.1318628787994385,
				0.16112209856510162
			],
			"min":[
				-2.3255133628845215,
				-0.014722466468811035,
				-0.16112209856510162
			],
			"type":"VEC3"
		},
		{
			"bufferView":32,
			"componentType":5126,
			"count":1725,
			"type":"VEC3"
		},
		{
			"bufferView":33,
			"componentType":5126,
			"count":1725,
			"type":"VEC2"
		},
		{
			"bufferView":34,
			"componentType":5123,
			"count":1866,
			"type":"SCALAR"
		}
	],
	"bufferViews":[
		{
			"buffer":0,
			"byteLength":72,
			"byteOffset":0,
			"target":34962
		},
		{
			"buffer":0,
			"byteLength":72,
			"byteOffset":72,
			"target":34962
		},
		{
			"buffer":0,
			"byteLength":48,
			"byteOffset":144,
			"target":34962
		},
		{
			"buffer":0,
			"byteLength":12,
			"byteOffset":192,
			"target":34963
		},
		{
			"buffer":0,
			"byteLength":164952,
			"byteOffset":204,
			"target":34962
		},
		{
			"buffer":0,
			"byteLength":164952,
			"byteOffset":165156,
			"target":34962
		},
		{
			"buffer":0,
			"byteLength":128262,
			"byteOffset":330108,
			"target":34963
		},
		{
			"buffer":0,
			"byteLength":2304,
			"byteOffset":458372,
			"target":34962
		},
		{
			"buffer":0,
			"byteLength":2304,
			"byteOffset":460676,
			"target":34962
		},
		{
			"buffer":0,
			"byteLength":1536,
			"byteOffset":462980,
			"target":34962
		},
		{
			"buffer":0,
			"byteLength":1056,
			"byteOffset":464516,
			"target":34963
		},
		{
			"buffer":0,
			"byteLength":6180,
			"byteOffset":465572,
			"target":34962
		},
		{
			"buffer":0,
			"byteLength":6180,
			"byteOffset":471752,
			"target":34962
		},
		{
			"buffer":0,
			"byteLength":4120,
			"byteOffset":477932,
			"target":34962
		},
		{
			"buffer":0,
			"byteLength":2532,
			"byteOffset":482052,
			"target":34963
		},
		{
			"buffer":0,
			"byteLength":20976,
			"byteOffset":484584,
			"target":34962
		},
		{
			"buffer":0,
			"byteLength":20976,
			"byteOffset":505560,
			"target":34962
		},
		{
			"buffer":0,
			"byteLength":13984,
			"byteOffset":526536,
			"target":34962
		},
		{
			"buffer":0,
			"byteLength":4344,
			"byteOffset":540520,
			"target":34963
		},
		{
			"buffer":0,
			"byteLength":23856,
			"byteOffset":544864,
			"target":34962
		},
		{
			"buffer":0,
			"byteLength":23856,
			"byteOffset":568720,
			"target":34962
		},
		{
			"buffer":0,
			"byteLength":15904,
			"byteOffset":592576,
			"target":34962
		},
		{
			"buffer":0,
			"byteLength":4824,
			"byteOffset":608480,
			"target":34963
		},
		{
			"buffer":0,
			"byteLength":11940,
			"byteOffset":613304,
			"target":34962
		},
		{
			"buffer":0,
			"byteLength":11940,
			"byteOffset":625244,
			"target":34962
		},
		{
			"buffer":0,
			"byteLength":7960,
			"byteOffset":637184,
			"target":34962
		},
		{
			"buffer":0,
			"byteLength":2418,
			"byteOffset":645144,
			"target":34963
		},
		{
			"buffer":0,
			"byteLength":12636,
			"byteOffset":647564,
			"target":34962
		},
		{
			"buffer":0,
			"byteLength":12636,
			"byteOffset":660200,
			"target":34962
		},
		{
			"buffer":0,
			"byteLength":8424,
			"byteOffset":672836,
			"target":34962
		},
		{
			"buffer":0,
			"byteLength":2580,
			"byteOffset":681260,
			"target":34963
		},
		{
			"buffer":0,
			"byteLength":20700,
			"byteOffset":683840,
			"target":34962
		},
		{
			"buffer":0,
			"byteLength":20700,
			"byteOffset":704540,
			"target":34962
		},
		{
			"buffer":0,
			"byteLength":13800,
			"byteOffset":725240,
			"target":34962
		},
		{
			"buffer":0,
			"byteLength":3732,
			"byteOffset":739040,
			"target":34963
		}
	],
	"buffers":[
		{
			"byteLength":742772,
			"uri":"grumbs.bin"
		}
	]
}
